<?xml version="1.0" encoding="utf-8"?>
<!-- Generator: Adobe Illustrator 23.0.0, SVG Export Plug-In . SVG Version: 6.00 Build 0)  -->
<svg version="1.1" id="Group_3_1_" xmlns="http://www.w3.org/2000/svg" xmlns:xlink="http://www.w3.org/1999/xlink" x="0px" y="0px"
	 viewBox="0 0 3000 938" style="enable-background:new 0 0 3000 938;" xml:space="preserve">
<style type="text/css">
	.st0{fill-rule:evenodd;clip-rule:evenodd;fill:#3EAE18;}
	.st1{fill:#3EAE18;}
	.st2{fill-rule:evenodd;clip-rule:evenodd;fill:#FFD103;}
</style>
<g id="brand_yourself">
	<g>
		<path class="st0" d="M181.3,823.4c-4.6-3.4-10.1-6.2-16.4-8.4c-6.3-2.2-12.3-3.6-18.2-4.2v-2.3c5.8-1.5,11.3-3.3,16.4-5.5
			c5.1-2.2,9.5-4.8,13.1-7.8c4-3.3,7.1-7.1,9.3-11.6c2.2-4.5,3.3-9.6,3.3-15.5c0-12.8-4.8-22.4-14.5-28.9
			c-9.6-6.5-25.3-9.8-47.1-9.8H40.8v9.6c2.3,0.4,5,1,8.1,1.7c3.1,0.7,5.8,1.6,8.1,2.6c3.1,1.5,5.1,3.2,5.9,5.1
			c0.8,2,1.2,4.4,1.2,7.4v122.6c0,3.2-0.5,5.8-1.5,7.8c-1,2-2.9,3.6-5.7,4.8c-1.4,0.7-3.9,1.2-7.4,1.7c-3.5,0.5-6.4,0.9-8.7,1.1v9.6
			h82.6c11.9,0,22.2-0.8,31-2.3c8.8-1.6,16.5-4.2,23.3-8c6.4-3.5,11.2-8.3,14.6-14.4c3.4-6.1,5.1-13.5,5.1-22.4
			c0-7.4-1.5-13.8-4.5-19.2C190,831.5,186.1,827,181.3,823.4z M103.9,740.9c1.6-0.1,3.6-0.2,5.9-0.3c2.3-0.1,4.1-0.2,5.6-0.2
			c9.9,0,17.4,2.7,22.4,8.1c5,5.4,7.5,12.9,7.5,22.6c0,10.5-2.9,18.9-8.6,25.1c-5.8,6.2-14.7,9.3-26.8,9.3h-5.8
			C103.9,805.4,103.9,740.9,103.9,740.9z M144.7,882.1c-5.6,6.5-12.8,9.8-21.7,9.8c-5,0-9.3-1-12.8-3.1c-3.5-2.1-5.6-4.6-6.3-7.7
			v-63.6c1.1-0.1,2.9-0.2,5.2-0.3c2.4-0.1,4.2-0.2,5.7-0.2c12.3,0,21.8,3.2,28.4,9.7c6.6,6.5,9.9,15.7,9.9,27.8
			C153,866.4,150.3,875.6,144.7,882.1z M415.8,891.5c-3.1-1.1-6.6-3.9-10.6-8.5c-4-4.6-7.2-8.5-9.5-11.7
			c-7.3-9.9-14.4-19.6-21.1-29.1c-6.8-9.5-12.7-17.8-17.8-25c13.1-4.2,22.8-10,29.2-17.3c6.4-7.4,9.6-17.2,9.6-29.4
			c0-13.8-5.2-24.1-15.5-31c-10.4-6.8-25.5-10.2-45.5-10.2h-89.3v9.6c1.9,0.3,4.4,0.9,7.7,1.6c3.3,0.7,6.1,1.6,8.5,2.7
			c3.1,1.5,5.1,3.2,5.9,5.1c0.8,2,1.2,4.4,1.2,7.4v122.7c0,3.1-0.5,5.7-1.5,7.7c-1,2-2.9,3.7-5.7,5c-1.5,0.7-4,1.2-7.6,1.7
			c-3.6,0.5-6.4,0.8-8.6,1v9.6h84.9v-9.6c-2.2-0.2-4.8-0.7-7.8-1.4c-3-0.7-5.3-1.4-6.7-2c-2.8-1.4-4.8-3.1-5.8-5.1
			c-1-2-1.5-4.5-1.5-7.5v-52.8h6.2c10.4,13.7,19.1,25.8,26.1,36.3c7,10.5,15.8,24.5,26.3,42.2h61v-9.6c-1.1-0.1-3-0.3-5.7-0.7
			C419.7,892.5,417.5,892,415.8,891.5z M342.6,803.8c-6.1,6.3-14.6,9.4-25.6,9.4h-8.5v-72.8h8.9c11,0,19.5,2.7,25.4,8
			c5.9,5.4,8.9,13.8,8.9,25.4C351.7,787.5,348.6,797.5,342.6,803.8z M621.5,889.5c-2.8-1.8-4.9-3.7-6.4-5.7c-1.5-2-2.7-4.2-3.7-6.7
			c-5.8-15-12.9-34-21.2-56.9c-8.3-22.9-19.8-54-34.4-93.4h-22.4c-10.5,27.8-20.2,53.2-28.9,76.3c-8.7,23-17.4,46.1-26.1,69
			c-1.4,3.9-3.2,7.3-5.3,10.2c-2.1,2.9-4.7,5.3-7.8,7.2c-1.8,1.2-4.2,2.2-7.3,2.9c-3.1,0.7-5.9,1.1-8.4,1.3v9.6h65.3v-9.6
			c-8.4-0.8-14.5-2.1-18.1-4c-3.6-1.8-5.4-4.1-5.4-6.7c0-0.8,0.1-2.2,0.4-4.3c0.3-2,1.1-5.4,2.5-9.9c1.1-3.5,2.4-7.5,4-12
			c1.5-4.5,2.9-8.4,4.2-11.8h54.9l13.6,36c0.5,1.4,0.8,2.5,1,3.3c0.1,0.8,0.2,1.6,0.2,2.2c0,1.9-2.7,3.5-8.2,4.7
			c-5.5,1.3-10.2,2.1-14.2,2.4v9.6h86.7v-9.6c-2.2-0.2-4.7-0.6-7.5-1.2C626,891.8,623.6,890.8,621.5,889.5z M506.9,832.9l22.8-63
			l23.1,63H506.9z M785.9,738.8c2.6,0.5,6.1,1.4,10.3,2.8s7.5,3,9.6,4.8c2.8,2.5,4.8,6.2,6.1,11.3c1.3,5.1,1.9,12.9,1.9,23.4v65.8
			l-87-117.7h-59.9v9.8c4.3,0.9,8.2,2.1,11.6,3.7c3.4,1.6,6.4,3.8,9,6.6c2.5,2.6,4.3,5.7,5.4,9.4c1.2,3.6,1.7,7.5,1.7,11.6v82.4
			c0,11.3-0.5,19.3-1.6,24.1c-1.1,4.8-3.1,8.4-6,10.7c-2.5,2-5.7,3.4-9.5,4.4c-3.8,0.9-7.1,1.5-10,1.8v9.6H736v-9.6
			c-2.6-0.5-6.1-1.4-10.5-2.8c-4.4-1.4-7.6-3-9.6-4.8c-2.8-2.5-4.8-6.3-6-11.6c-1.2-5.3-1.8-13-1.8-23.1v-81.7l99.1,134.5h20V779.9
			c0-10.4,0.6-18.2,1.7-23.6c1.2-5.4,3.1-9.1,5.9-11.3c3.1-2.5,6.7-4.1,10.5-4.8c3.9-0.7,6.9-1.1,9-1.3v-9.6h-68.3V738.8z
			 M1047.1,747.2c-9.6-6.9-19.5-11.6-29.8-14.1c-10.3-2.5-20-3.8-29-3.8h-84.7v9.6c1.7,0.2,4.2,0.5,7.3,1c3.2,0.5,6.2,1.4,9,2.8
			c2.8,1.4,4.7,3.2,5.7,5.5c1,2.2,1.5,4.8,1.5,7.5v123.3c0,2.9-0.5,5.5-1.6,7.5c-1,2.1-2.9,3.7-5.6,5c-1.2,0.6-3.6,1.1-7.2,1.5
			c-3.6,0.4-6.6,0.7-9,0.7v9.6H984c12.5,0,24.4-1.7,35.8-5.1c11.4-3.4,21.6-8.6,30.6-15.5c8.8-6.9,15.9-15.9,21.2-26.8
			c5.3-10.9,8-23.7,8-38.4c0-16.8-3-30.9-9-42.5C1064.7,763.4,1056.8,754.1,1047.1,747.2z M1032.3,848.5c-1.7,9-4.4,16.8-8,23.4
			c-3.7,6.6-8.6,11.6-14.7,15.1c-6.1,3.4-13.3,5.1-21.8,5.1c-4,0-7.3-0.5-9.8-1.4c-2.5-0.9-4.6-2.3-6.3-4c-1.7-1.7-2.9-3.7-3.6-5.9
			c-0.7-2.2-1.1-4.8-1.1-7.8v-132c1.6-0.1,4.1-0.2,7.5-0.3c3.3-0.1,6.3-0.2,8.9-0.2c8.2,0,15.6,1.8,22,5.5
			c6.5,3.7,11.9,8.9,16.2,15.6c4.3,6.7,7.6,14.8,9.9,24.3c2.2,9.5,3.4,20,3.4,31.5C1034.8,829,1033.9,839.5,1032.3,848.5z
			 M1337.4,738.8c7,0.4,12,1.3,15.1,2.8s4.7,3.6,4.7,6.4c0,2.2-2.7,8.2-8,18c-5.3,9.8-15.1,27-29.3,51.6
			c-6.9-12.5-12.8-23.4-17.7-32.7c-4.9-9.3-8.6-16.6-11.2-21.9c-2.8-5.6-4.7-9.8-5.8-12.5c-1.1-2.7-1.6-4.5-1.6-5.4
			c0-1.8,1.5-3.2,4.4-4.2c2.9-1,8.6-1.7,16.9-1.9v-9.6h-91.2v9.6c2.3,0.2,4.9,0.6,7.8,1.2c2.9,0.7,5.3,1.6,7.3,2.8
			c2.7,1.7,5.3,3.9,7.9,6.7c2.6,2.7,5.1,6.4,7.7,10.9c4.9,8.7,10,17.9,15.4,27.8c5.4,9.9,10.9,20.4,16.7,31.4c2,3.8,3.7,7,4.9,9.4
			c1.3,2.4,2.2,4.4,2.7,5.9c0.4,1.4,0.7,3.1,0.8,5.1c0.1,2,0.1,4.4,0.1,7.1v30.7c0,3.1-0.5,5.7-1.5,7.9c-1,2.2-2.9,3.9-5.7,5.2
			c-1.6,0.7-4.3,1.2-8.2,1.7c-3.9,0.5-6.9,0.8-9,1v9.6h88.7v-9.6c-1.9-0.2-5-0.7-9.1-1.7c-4.1-0.9-6.8-1.7-8.1-2.3
			c-2.8-1.4-4.8-3.2-5.8-5.4s-1.5-4.8-1.5-7.7V852c0-9.2,0.5-15.6,1.4-19.3c0.9-3.7,3.5-9.1,7.6-16c6.3-11,12.1-21,17.4-30.1
			c5.3-9.1,10.4-17.6,15.3-25.3c2.4-3.8,4.8-7.2,7.3-10.2c2.5-3.1,5.4-5.6,8.6-7.5c2-1.3,4.1-2.3,6.4-3.1s4.7-1.3,7.4-1.6v-9.6h-59
			L1337.4,738.8L1337.4,738.8z M1581.7,748.6c-7.6-7.6-16.7-13.5-27.1-17.8c-10.4-4.2-21.6-6.4-33.5-6.4c-12,0-23.2,2.2-33.8,6.6
			c-10.6,4.4-19.7,10.6-27.4,18.7c-7.8,8.3-13.9,18.2-18.3,29.7c-4.4,11.6-6.7,24.5-6.7,38.7c0,13.7,2.3,26,6.8,37.1
			c4.6,11.1,10.7,20.6,18.5,28.3c7.8,7.9,16.9,14,27.2,18.1c10.3,4.2,21.3,6.3,32.9,6.3c14.4,0,26.7-2.4,37.1-7.2
			c10.4-4.8,19.4-11.5,27.1-20c7.3-8.3,12.9-18.1,16.8-29.5c3.9-11.4,5.8-23.5,5.8-36.2c0-14.2-2.3-26.9-6.9-38
			C1595.7,766,1589.5,756.5,1581.7,748.6z M1560.1,847.8c-1.5,9.4-3.9,17.8-7.3,25.3c-3.1,7.1-7.4,12.7-12.7,16.8
			c-5.3,4.1-11.7,6.1-19.1,6.1c-7.6,0-13.9-2-19.1-6.1s-9.4-9.7-12.8-17c-3.3-7.2-5.7-15.6-7.2-25.3c-1.5-9.6-2.3-19.9-2.3-30.8
			c0-25.6,3.5-45.4,10.5-59.4c7-14,17.3-21,30.8-21c7.9,0,14.5,2.2,19.8,6.7c5.3,4.5,9.6,10.5,12.8,17.9c3.1,7.4,5.4,15.9,6.7,25.4
			c1.3,9.5,2,19.3,2,29.4C1562.4,827.8,1561.6,838.4,1560.1,847.8z M1778.3,738.8c1.9,0.3,5.3,1.2,10.1,2.7s8.2,3.1,10.1,4.9
			c2.7,2.3,4.7,6,6,11.2c1.3,5.2,2,13,2,23.5v59c0,16.8-3.7,29.6-11.1,38.3c-7.4,8.7-17.6,13-30.6,13c-13.2,0-23.3-3.9-30.3-11.8
			c-7-7.8-10.4-20.4-10.4-37.6v-87.8c0-2.9,0.5-5.4,1.5-7.7c1-2.3,2.9-3.9,5.7-4.9c2.5-0.9,5-1.6,7.5-2s4.9-0.8,7.3-0.9v-9.3h-83.4
			v9.3c1.8,0.2,4.1,0.7,7,1.3c2.8,0.7,5.2,1.5,7.2,2.6c2.8,1.6,4.8,3.5,5.8,5.5c1,2,1.5,4.5,1.5,7.4v89c0,20,6.2,35.6,18.6,46.8
			c12.4,11.2,29.9,16.8,52.6,16.8c19.4,0,35.1-5.8,46.9-17.4c11.8-11.6,17.7-26.9,17.7-46v-64.7c0-10.6,0.6-18.6,1.7-23.9
			c1.2-5.3,3.2-9,6-11c2.8-2.1,6.2-3.6,10.3-4.5c4.1-0.9,7.2-1.4,9.4-1.7v-9.6h-69L1778.3,738.8L1778.3,738.8z M2064.1,891.5
			c-3.1-1.1-6.6-3.9-10.6-8.5c-4-4.6-7.2-8.5-9.5-11.7c-7.3-9.9-14.4-19.6-21.1-29.1c-6.8-9.5-12.7-17.8-17.8-25
			c13.1-4.2,22.8-10,29.2-17.3c6.4-7.4,9.6-17.2,9.6-29.4c0-13.8-5.2-24.1-15.5-31c-10.4-6.8-25.5-10.2-45.5-10.2h-89.3v9.6
			c1.9,0.3,4.4,0.9,7.7,1.6s6.1,1.6,8.5,2.7c3.1,1.5,5.1,3.2,5.9,5.1c0.8,2,1.2,4.4,1.2,7.4v122.7c0,3.1-0.5,5.7-1.5,7.7
			c-1,2-2.9,3.7-5.7,5c-1.5,0.7-4,1.2-7.6,1.7c-3.6,0.5-6.4,0.8-8.6,1v9.6h84.9v-9.6c-2.2-0.2-4.8-0.7-7.8-1.4c-3-0.7-5.3-1.4-6.7-2
			c-2.8-1.4-4.8-3.1-5.8-5.1c-1-2-1.5-4.5-1.5-7.5v-52.8h6.2c10.4,13.7,19.1,25.8,26.1,36.3c7,10.5,15.8,24.5,26.3,42.2h61v-9.6
			c-1.1-0.1-3-0.3-5.7-0.7C2068,892.5,2065.8,892,2064.1,891.5z M1990.8,803.8c-6.1,6.3-14.6,9.4-25.6,9.4h-8.5v-72.8h8.9
			c11,0,19.5,2.7,25.4,8c5.9,5.4,8.9,13.8,8.9,25.4C1999.9,787.5,1996.9,797.5,1990.8,803.8z M2214.5,803.5
			c-4.5-1.9-9.6-3.8-15.4-5.9c-5.8-2-11.4-4.1-16.9-6.1c-9.4-3.4-16.4-7.2-20.8-11.6c-4.4-4.4-6.7-10.1-6.7-17
			c0-7.4,2.6-13.5,7.7-18.5c5.1-5,11.7-7.5,19.8-7.5c6.4,0,12,1.4,16.8,4.2c4.8,2.8,9,6.6,12.7,11.3c3.4,4.4,6.6,10,9.6,16.6
			c3,6.7,5.7,13.2,7.9,19.6h9.6l-0.9-59.3h-9.8l-6.8,7.4c-4.4-2.7-10.5-5.4-18.2-8c-7.7-2.7-16-4-24.8-4c-9,0-17.4,1.5-25.1,4.4
			c-7.7,2.9-14,6.7-18.9,11.4c-5.2,5-9.1,10.6-11.8,16.9s-4,12.8-4,19.6c0,10.7,2.6,20.4,7.8,29.1c5.2,8.7,13.1,15.3,23.8,20
			c4.6,2,9.6,3.9,14.9,5.8c5.3,1.9,11,3.9,17.3,6.1c9.6,3.4,16.8,7.3,21.4,12c4.6,4.6,6.9,10.3,6.9,17.1c0,8.3-2.7,15.1-8.1,20.5
			c-5.4,5.4-13.2,8.2-23.4,8.2c-7.6,0-14.1-1.7-19.8-5.1c-5.6-3.4-10.7-7.9-15.3-13.4c-4.4-5.2-8.3-11.2-11.7-17.8
			c-3.4-6.6-6.1-12.9-8.3-18.9h-9.6l1.5,62.9h9.5l7.7-8.6c5.8,3.6,13,6.7,21.4,9.3c8.4,2.6,17.5,3.9,27.2,3.9
			c10.5,0,19.6-1.4,27.5-4.2c7.8-2.8,14.8-6.7,20.7-11.9c5.5-4.7,9.8-10.5,13-17.5c3.2-7,4.8-14.3,4.8-21.8c0-11.9-2.8-21.9-8.5-30
			C2233.5,814.4,2225.3,808.1,2214.5,803.5z M2428.3,867.5c-4.5,8.2-8.5,14.3-12.1,18.3c-1.3,1.6-3.4,2.7-6.1,3.6
			c-2.7,0.8-5.7,1.4-8.8,1.8c-2.8,0.4-6,0.7-9.6,0.7c-3.7,0.1-6.8,0.1-9.4,0.1c-5.6,0-10-0.2-13.3-0.7s-5.8-1.5-7.7-3.1
			c-1.9-1.6-3.3-4-4-7c-0.7-3.1-1.1-7.2-1.1-12.4v-50.1h16.4c4.4,0,8.3,0.6,11.7,1.7c3.4,1.1,6.3,3.1,8.7,6.1
			c1.6,2,3.4,5.5,5.2,10.7c1.8,5.2,3,9.5,3.4,12.9h8.5v-72.6h-8.5c-0.5,3.5-1.7,7.6-3.4,12.4c-1.8,4.7-3.5,8.1-5.2,9.9
			c-2.8,3-5.8,5.1-9.2,6.1c-3.4,1.1-7.1,1.6-11.2,1.6h-16.4v-67.2h23.1c2.6,0,5.9,0.1,9.9,0.2c4,0.1,7.1,0.5,9.4,1
			c5.2,1.2,10.5,5.2,15.8,12c5.3,6.8,9,13.5,11.2,20.1h8.5v-44.4h-141.1v9.6c1.8,0.2,4.4,0.8,8,1.6c3.5,0.8,6.2,1.7,8.2,2.7
			c3.1,1.6,5.1,3.3,5.9,5.2c0.8,1.9,1.2,4.4,1.2,7.3v122.7c0,3.1-0.5,5.7-1.5,7.7c-1,2-2.9,3.7-5.7,5c-1.5,0.7-4,1.2-7.6,1.7
			c-3.6,0.5-6.4,0.8-8.5,1v9.6h149.2l3-54.2h-8.2C2435.7,853.1,2432.8,859.3,2428.3,867.5z M2631.7,868.2c-4,7.6-7.9,13.4-11.7,17.6
			c-2.5,2.6-6.5,4.3-12.2,5.1c-5.6,0.8-11.5,1.2-17.4,1.2c-6.1,0-10.9-0.2-14.4-0.7c-3.5-0.4-6.2-1.5-8.1-3
			c-1.9-1.5-3.3-3.8-3.9-6.9c-0.7-3.1-1-7.4-1-12.8V754.4c0-2.9,0.5-5.4,1.5-7.7c1-2.2,2.9-3.9,5.8-5c2.4-0.8,5.2-1.5,8.5-1.9
			c3.3-0.4,6.1-0.8,8.5-1v-9.6h-87.3v9.6c1.9,0.3,4.5,0.8,7.8,1.5c3.3,0.7,6,1.6,8.4,2.8c3.1,1.6,5.1,3.3,5.9,5.2
			c0.8,1.9,1.2,4.4,1.2,7.3v122.7c0,3.2-0.5,5.8-1.6,7.8c-1,2-2.9,3.6-5.6,4.8c-1.1,0.5-3.4,1-7,1.5c-3.5,0.5-6.6,0.9-9.2,1.2v9.6
			h146.6l3.1-55.8h-8.2C2638.9,853.7,2635.7,860.7,2631.7,868.2z M2689.4,729.3v9.6c1.8,0.2,4.4,0.8,7.9,1.6
			c3.4,0.8,6.2,1.7,8.3,2.7c2.9,1.4,4.8,3.1,5.8,5.2c0.9,2.1,1.4,4.5,1.4,7.3v122.7c0,3.2-0.5,5.8-1.6,7.8c-1,2-2.9,3.6-5.6,4.8
			c-1.4,0.7-3.9,1.2-7.5,1.7c-3.6,0.5-6.5,0.8-8.6,1v9.6h85.8v-9.6c-2.8-0.3-5.7-0.8-8.6-1.4c-2.9-0.6-5.1-1.3-6.8-2
			c-2.8-1.3-4.8-3-5.8-5.1c-1-2.1-1.5-4.6-1.5-7.5V820h15.8c4.7,0,8.7,0.6,12.1,1.9c3.4,1.3,6.1,3.2,8.3,5.8
			c1.4,1.7,3.1,5.2,5.2,10.5c2,5.3,3.2,9.7,3.5,13.4h8.5v-73.2h-8.5c-0.4,3.4-1.4,7.5-3.2,12.3c-1.8,4.8-3.6,8.2-5.4,10.2
			c-2.5,2.9-5.5,4.8-8.7,5.9c-3.3,1.1-7.2,1.7-11.7,1.7h-15.8v-68.3h24.8c3.1,0,6.6,0.1,10.3,0.4c3.7,0.2,6.7,0.5,9,0.9
			c4.9,0.7,10.1,4.9,15.6,12.6c5.5,7.6,9.3,14.9,11.5,21.6h8.6v-46.5H2689.4z"/>
	</g>
</g>
<g id="_J">
	<g>
		<path class="st1" d="M211.7,120.6v323.8c0,12-2.1,22.6-6.3,31.8c-4.2,9.2-9.8,17-16.7,23.4c-7,6.4-14.8,11.3-23.6,14.7
			c-8.8,3.4-17.7,5.1-26.9,5.1c-13.5,0-26.7-3.6-39.4-10.8c-12.7-7.2-23.1-17.2-31-30L7,539.3c16.3,21.2,36.7,38.3,61.2,51.1
			c24.5,12.8,50.2,19.2,77.3,19.2c14.7,0,31.3-2.8,49.8-8.4s35.9-15,52.2-28.2c16.3-13.2,30.1-30.6,41.5-52.3
			c11.3-21.6,17-48.7,17-81.1v-319H211.7z"/>
	</g>
</g>
<g id="BAXY">
	<g>
		<path class="st0" d="M1383.3,413.1c-5.8-9.8-12.7-18.7-20.9-26.7c-8.2-8-17.4-14.6-27.8-19.8c13.1-11.6,23.7-25.8,31.6-42.7
			c8-16.8,11.9-34.2,11.9-52.3c0-21.2-3.7-40.4-11-57.4c-7.4-17-17.6-31.4-30.7-43.3c-13.1-11.8-28.6-20.8-46.3-27
			c-17.7-6.2-36.9-9.3-57.6-9.3h-171.9v480.7l192.8,0.6c19.5,0,38.1-3.4,55.8-10.2c17.7-6.8,33.3-16.3,46.8-28.5
			c13.5-12.2,24.4-26.8,32.5-43.9c8.2-17,12.2-35.5,12.2-55.6c0-11.2-1.5-22.3-4.5-33.3C1393.5,433.3,1389.1,422.9,1383.3,413.1z
			 M1153.3,205.5h54.3c10.3,0,20.3,1.4,29.8,4.2c9.5,2.8,18,7,25.4,12.6c7.4,5.6,13.2,12.6,17.6,21c4.4,8.4,6.6,18.4,6.6,30
			c0,11.6-2.2,21.5-6.6,29.7c-4.4,8.2-10.2,14.9-17.6,20.1c-7.4,5.2-15.8,9-25.4,11.4s-19.5,3.6-29.8,3.6h-27.5
			c-8,0-16.9-0.2-26.9-0.6L1153.3,205.5L1153.3,205.5z M1297.7,502c-4.8,8.2-11,15-18.8,20.4c-7.8,5.4-16.6,9.3-26.6,11.7
			c-9.9,2.4-19.9,3.6-29.8,3.6h-69.2V405c13.5,0,26.9-0.1,40-0.3c13.1-0.2,26.5-0.1,40,0.3c9.9,0,19.2,1.6,27.8,4.8
			c8.6,3.2,16.1,7.7,22.7,13.5c6.6,5.8,11.7,12.9,15.5,21.3c3.8,8.4,5.7,17.6,5.7,27.6C1304.8,483.9,1302.5,493.8,1297.7,502z
			 M1681.8,134.6l-225.6,480.7h101.5l44.8-96.1l115.8-250.5L1834,519.1l44.2,96.1h101.5L1754,134.6L1681.8,134.6L1681.8,134.6z
			 M2466.3,134.6h-114l-105.6,162.8l-106.2-162.8h-112.2l159.9,231.3L2014,615.3h114l118.8-182.6l118.8,182.6h114l-174.3-249.9
			L2466.3,134.6z M2879.4,135.2l-129.5,201.9l-124.1-201.9h-107.4l184.4,282.4v198.3h93.7V418.8L2991,135.2L2879.4,135.2
			L2879.4,135.2z"/>
	</g>
</g>
<g id="Group_2_1_">
	<g id="Rectangle_1">
		<g>
			<path class="st0" d="M783,78.2v85c73,40.5,122.4,118.4,122.4,207.9c0,131.2-106.2,237.6-237.3,237.6
				c-131.1,0-237.3-106.4-237.3-237.6c0-91.9,52.1-171.6,128.4-211.1V76.7c-118.6,44.6-203,159.1-203,293.4
				c0,173,140.1,313.3,312.9,313.3S982,543.1,982,370.1C982,237.3,899.5,123.9,783,78.2z"/>
		</g>
	</g>
	<g id="Group_1_1_">
		<g id="Shape_1">
			<g>
				<path class="st2" d="M644.9,131.5h48.3c12.6,0,30.1-15.6,30.1-34.9l13.9-50.8c0-19.3-13.3-34.9-32.1-34.9H633
					c-18.8,0-32.1,15.6-32.1,34.9l13.9,50.8C614.8,115.9,632.3,131.5,644.9,131.5z M809.8,469.2c0,0-70.5-240.7-77.6-273.9
					c-7.8-36.2-30.8-33.9-30.8-33.9h-30.8v0h-29c0,0-23.1-2.3-30.8,33.9c-7.1,33.3-77.5,273.9-77.5,273.9s-3.3,29.9,29.8,31.9
					l99.4,99.6l8.1,0.8v0.2l0.9-0.1l0.9,0.1v-0.2l8.1-0.8l45.4-45.5l-21.6-44.1L667.6,538V419.4l85.5,69.7l-31.8,17.9l18.2,34.6
					l40.5-40.6C813.1,499.1,809.8,469.2,809.8,469.2z"/>
			</g>
		</g>
	</g>
</g>
</svg>
